inDegrees=no
num_controls=7
num_derivatives=13
num_iterations=92
num_multipliers=7
num_parameters=0
num_slacks=7
num_states=26
objective=0.545440
objective_accelerations=0.041525
objective_balance=0.003767
objective_effort=0.040479
objective_height=0.450241
objective_ligament=0.009429
solver_duration=986.956837
status=Solve_Succeeded
success=true
DataType=double
version=3
OpenSimVersion=4.5
endheader
time	/jointset/ground_pelvis/pelvis_tilt/value	/jointset/ground_pelvis/pelvis_tx/value	/jointset/ground_pelvis/pelvis_ty/value	/jointset/hip_r/hip_flexion_r/value	/jointset/hip_r/hip_adduction_r/value	/jointset/hip_r/hip_rotation_r/value	/jointset/back/lumbar_extension/value	/jointset/patellofemoral_r/patellar_flexion_r/value	/jointset/knee_r/knee_flexion_r/value	/jointset/knee_r/knee_adduction_r/value	/jointset/knee_r/knee_rotation_r/value	/jointset/ankle_r/ankle_angle_r/value	/jointset/subtalar_r/subtalar_angle_r/value	/jointset/ground_pelvis/pelvis_tilt/speed	/jointset/ground_pelvis/pelvis_tx/speed	/jointset/ground_pelvis/pelvis_ty/speed	/jointset/hip_r/hip_flexion_r/speed	/jointset/hip_r/hip_adduction_r/speed	/jointset/hip_r/hip_rotation_r/speed	/jointset/back/lumbar_extension/speed	/jointset/patellofemoral_r/patellar_flexion_r/speed	/jointset/knee_r/knee_flexion_r/speed	/jointset/knee_r/knee_adduction_r/speed	/jointset/knee_r/knee_rotation_r/speed	/jointset/ankle_r/ankle_angle_r/speed	/jointset/subtalar_r/subtalar_angle_r/speed	/forceset/tau_hip_flexion_r	/forceset/tau_hip_adduction_r	/forceset/tau_hip_rotation_r	/forceset/tau_knee_flexion_r	/forceset/tau_ankle_angle_r	/forceset/tau_subtalar_angle_r	/forceset/tau_lumbar_extension	lambda_cid13_p0	lambda_cid14_p0	lambda_cid14_p1	lambda_cid14_p2	lambda_cid14_p3	lambda_cid14_p4	lambda_cid14_p5	/jointset/ground_pelvis/pelvis_tilt/accel	/jointset/ground_pelvis/pelvis_tx/accel	/jointset/ground_pelvis/pelvis_ty/accel	/jointset/hip_r/hip_flexion_r/accel	/jointset/hip_r/hip_adduction_r/accel	/jointset/hip_r/hip_rotation_r/accel	/jointset/back/lumbar_extension/accel	/jointset/patellofemoral_r/patellar_flexion_r/accel	/jointset/knee_r/knee_flexion_r/accel	/jointset/knee_r/knee_adduction_r/accel	/jointset/knee_r/knee_rotation_r/accel	/jointset/ankle_r/ankle_angle_r/accel	/jointset/subtalar_r/subtalar_angle_r/accel	gamma_cid13_p0	gamma_cid14_p0	gamma_cid14_p1	gamma_cid14_p2	gamma_cid14_p3	gamma_cid14_p4	gamma_cid14_p5
1.5	-0.2248033772022801	0.007268404776736312	0.8494937845623352	0.8679871797741723	-0.2254133335518746	-0.142343875131965	-0.3066254100277616	0.6523066631294124	0.6523066631298343	0.03699043737187275	0.1744748464710129	0.176636538415443	0.03843527493722267	0.5449320020083035	0.2304118956749586	0.3966698672137134	-1.954660013204582	0.01195837318674898	-0.2891941908881975	0.6824961387485373	-1.733457047735956	-1.73345704773617	0.2749817598017868	0.0003810140106653647	-0.4044356154723693	-0.08957306963591351	-0.1432102302820438	-0.01781389171869831	0.007684026445414336	-0.2938037163221783	0.1037289842327136	-0.01144557774820337	0.1759221170352692	-33.96767504451648	-8.482706865778054	-2.210222838290111	-4.037446124837996	-1.588116122591824	-659.9194907257274	56.21240741865928	0.2663269107509051	0.5113733351620097	-0.4394447760864431	-1.146723496736724	0.006100571656881366	-0.5199901099394654	1.642032044626425	-1.106515232657434	-1.106515232657471	0.4374580736228944	0.01026158931183529	-0.3471605213735853	-0.04512771016421919	1.177191159474226e-07	1.758207208868244e-07	-3.34214685447313e-07	1.216064684921424e-06	-5.982897752229781e-08	2.164930013635753e-07	-4.289680544728828e-07
1.51	-0.2193412762365715	0.009597922905198156	0.8534377299880517	0.8483851526616897	-0.2252942843040155	-0.1452606679074992	-0.2997190649591489	0.6349188558392388	0.6349188558394934	0.03976424705440465	0.1744791406111004	0.1725752062416529	0.03753635516197078	0.5474128452573169	0.2354710023524598	0.3920416425450991	-1.965511127542919	0.01185282500764693	-0.294145883951724	0.6987199106889762	-1.743886452292841	-1.743886452292776	0.2797689020130801	0.0004648096725154813	-0.4077660404932466	-0.09019117498796471	-0.1359203945776957	-0.01944214902866456	0.007066956466681303	-0.2909078797230411	0.1057380873107578	-0.01189991868544125	0.169677121022093	-34.87240372687118	-7.65402894253711	-2.156527918160525	-4.16699188303165	-1.89191478655558	-656.1884828198347	56.4251551776814	0.2276804747395241	0.5000600213398274	-0.4861021199764365	-1.019138914577571	-0.01853773629435473	-0.4797818936597625	1.604605126060011	-0.9784850033200782	-0.978485003278214	0.4976529781608654	0.005725263207369104	-0.316260090145273	-0.06711573198509108	1.246266238064318e-07	1.787237226508949e-07	-3.965697208496402e-07	1.240186187495788e-06	-5.387924626851186e-08	2.237574718677011e-07	-4.781154006212556e-07
1.52	-0.2138566233498196	0.01197740823789423	0.8573330750055365	0.8286816477033835	-0.2251762215826674	-0.1482263822114888	-0.2926520710996707	0.6174332881162741	0.6174332881163624	0.04258559029570554	0.1744839300495217	0.168482514498114	0.03663186157634647	0.5494423862168456	0.2404053365218049	0.386949785567378	-1.974955582369074	0.0117610678845205	-0.2989784965792712	0.714625896921707	-1.753009134294368	-1.753009134294024	0.2844884715555063	0.0004800736777959965	-0.4107075294221438	-0.09068783171039695	-0.1286305588733584	-0.02107040633863018	0.006449886487942719	-0.2880120431239058	0.1077471903888022	-0.01235425962267797	0.1634321250089066	-35.74594530080753	-6.833995320681862	-2.101530421584609	-4.299962886756766	-2.193605182772048	-652.5964530865792	56.71483434115427	0.1760664528539967	0.4864188335307348	-0.5321712379077983	-0.8653915943004402	0.008858782852013466	-0.4961740227436202	1.578474903084809	-0.8451707215857377	-0.8451707215857476	0.4239435398494645	-0.003444742002098717	-0.2693733029776074	-0.02083798424042582	1.320022206119682e-07	1.802065912886263e-07	-4.748405418698531e-07	1.253628925440822e-06	-4.566649304314373e-08	2.313027991373895e-07	-5.320480030005508e-07
1.53	-0.2083539592248576	0.01440557673013651	0.8611752372699329	0.808890744525835	-0.2250590470843951	-0.1512401296116297	-0.2854276624359682	0.59986303712697	0.5998630371271121	0.04545368524203449	0.1744887906542119	0.1643623566791165	0.03572296966356078	0.5510122458606003	0.2452035598476372	0.3814106879776562	-1.982985691707043	0.01167758636595328	-0.3037599693135826	0.7301961141965591	-1.760819632778567	-1.760819632778598	0.2891086960282643	0.0004854870500249581	-0.4132566063500323	-0.09106772379206371	-0.1212893126526062	-0.02284910650762822	0.00585778215818486	-0.2851901082209818	0.1098741274880662	-0.01295042649443211	0.1571382492621601	-36.58384414370421	-5.989989909438008	-2.108382093978229	-4.417987953783206	-2.485915135787284	-649.1092614749894	56.93557966602791	0.1357360960565887	0.4727978970808551	-0.5755272505085941	-0.7358921150536881	-0.01626606348979361	-0.4672605624456403	1.53733689641282	-0.7158036116435414	-0.7158036116997805	0.4777663694082095	0.001789610335723629	-0.23754984723832	-0.04309086927860965	1.398751619231897e-07	1.801805684796224e-07	-5.700218851090693e-07	1.255725475967195e-06	-3.504927897296956e-08	2.391465367204883e-07	-5.910649401252011e-07
1.54	-0.2028379384282738	0.01688098221863149	0.8649598589122314	0.7890267259526034	-0.224942570290165	-0.1543013170718472	-0.2780493432481721	0.5822213183128629	0.5822213183130541	0.04836732332677383	0.1744935564393241	0.1602187330989314	0.03481097362012864	0.5521137205411668	0.2498527357723443	0.3754416611477673	-1.989578661505351	0.01162152707623882	-0.3084665085947237	0.7454080017405034	-1.767302699255027	-1.767302699255433	0.2935970992377926	0.0004611097622667618	-0.4154006816596756	-0.0913086578396833	-0.1139480664318677	-0.02462780667662744	0.005265677828430361	-0.2823681733180604	0.1120010645873298	-0.0135465933661876	0.1508443735154011	-37.38163396938779	-5.15542350659557	-2.113847259145727	-4.539706412106125	-2.774586237636229	-645.7745566045746	57.23809692505202	0.08238946021639197	0.4566093533056576	-0.6181570859412339	-0.5779636863682226	0.01434322862257281	-0.4811873321095585	1.506808956903272	-0.5796843200378524	-0.5796843200379035	0.3975792872035101	-0.00940287399954785	-0.1883729793286021	0.006953622569003928	1.48545686196141e-07	1.79391565185958e-07	-6.77777716414812e-07	1.2525015490535e-06	-2.290815956079947e-08	2.470933270674711e-07	-6.518440958170654e-07
1.55	-0.1973132567069143	0.01940209737543267	0.868682692400099	0.7691039941804226	-0.2248265737373366	-0.1574094178991956	-0.2705208070736785	0.564521473687892	0.5645214736882113	0.05132515887774487	0.1744981635185522	0.1560557144038389	0.03389720647886876	0.5527427646117421	0.2543413268309856	0.3690582645371274	-1.994720139572549	0.01158146952173641	-0.3131333972210483	0.7602278292153505	-1.772434512908464	-1.772434512908579	0.2979483780722125	0.0004499444140272883	-0.4171308794797848	-0.09142158122863671	-0.1065072891854979	-0.02665033807211044	0.004691307184775278	-0.2796811954916915	0.1143448248364833	-0.01426271142944828	0.144463521521378	-38.13482292110714	-4.262404068431779	-2.164348943283428	-4.65061577052668	-3.081547602259752	-642.5218288634132	57.5114294712038	0.04120187673153609	0.4406384103549844	-0.6583948039851193	-0.4450830565397721	-0.01253633835297377	-0.456162964369508	1.4588590514111	-0.4452056559358624	-0.4452056558921184	0.4506002729971796	0.001710906191685365	-0.1545000428264502	-0.01692813345985946	1.581351647510855e-07	1.777234756817064e-07	-8.000215448406821e-07	1.243147506828423e-06	-9.011236167634216e-09	2.551588521206679e-07	-7.146536337711539e-07
1.56	-0.1917846765455987	0.02196722932846269	0.8723396991507882	0.7491372789896391	-0.224710848978228	-0.1605635322801011	-0.2628462147427098	0.5467772557728	0.5467772557732484	0.05432584683534664	0.1745023957985825	0.1518775623586505	0.03298300754095285	0.5528934085324511	0.258656095018112	0.3622763137121092	-1.998375345225512	0.01156716833258187	-0.3176692193063967	0.7746192330356204	-1.776177357279471	-1.776177357279294	0.3021675805640716	0.0003861499229011014	-0.41842735167887	-0.09139501717088448	-0.09906651193914133	-0.02867286946759387	0.004116936541108684	-0.2769942176653242	0.116688585085637	-0.01497882949270905	0.1380826695273424	-38.83897967959022	-3.379472048053925	-2.213508186108128	-4.765290793118264	-3.383885471964502	-639.4330004167757	57.87026999105125	-0.01329056975683538	0.4218447790026614	-0.6978679288169015	-0.2807092035213561	0.01949450169215715	-0.4549740239143221	1.421124225987905	-0.3018904635518327	-0.3018904635519509	0.3711640186913637	-0.01992870257690904	-0.1016278551238371	0.03485111191013042	1.684382432868028e-07	1.770143600268281e-07	-9.29799280429315e-07	1.236265099102682e-06	4.097511478459609e-09	2.687980176777546e-07	-7.798047111441172e-07
